<?xml version="1.0" encoding="utf-8"?>
<!-- Generator: Adobe Illustrator 22.0.1, SVG Export Plug-In . SVG Version: 6.00 Build 0)  -->
<svg version="1.1" id="Layer_1" xmlns="http://www.w3.org/2000/svg" xmlns:xlink="http://www.w3.org/1999/xlink" x="0px" y="0px"
	 viewBox="0 0 300 97.7" style="enable-background:new 0 0 300 97.7;" xml:space="preserve">
<title>Logo</title>
<path d="M293,46.3V26.1h-18.8v20.2h-7V0h7v19.8H293V0h7v46.3H293z"/>
<path d="M247.2,6.3v40h-7v-40h-12.8V0h32.5v6.3H247.2z"/>
<path d="M213.2,46.3V0h7v46.3H213.2z"/>
<path d="M198.9,41.9c-2.9,2.9-7.1,4.3-12,4.3h-16.2V0h16.2c4.8,0,9,1.4,12,4.3c5,5,4.7,11.8,4.7,18.5S203.9,36.9,198.9,41.9z
	 M194.1,9.4c-2-2.2-4.9-3.3-7.9-3.1h-8.5V40h8.5c3,0.2,5.8-1,7.9-3.1c2.4-2.7,2.5-7.7,2.5-14S196.5,12.1,194.1,9.4z"/>
<path d="M132.3,46.3V0h29.6v6.3h-22.6v13.5h19.2v6.2h-19.2V40h22.6v6.3L132.3,46.3z"/>
<path d="M116,46.3l-9.8-19.5h-8.8v19.5h-7V0h17.9c8.8,0,14.4,5.7,14.4,13.5c0.2,5.8-3.6,10.9-9.2,12.3l10.7,20.5H116z M107.9,6.3
	H97.5v14.5h10.4c4.7,0,7.9-2.7,7.9-7.2S112.6,6.3,107.9,6.3L107.9,6.3z"/>
<path d="M52.1,46.3V0h29.6v6.3H59.1v13.5h19.2v6.2H59.1V40h22.5v6.3L52.1,46.3z"/>
<path d="M33.8,46.3V15.3L23.1,37.9h-5.2L7,15.3v30.9H0V0h7l13.5,28.8L33.8,0h7v46.3H33.8z"/>
<path d="M33.9,97.3V66.3L23.2,88.9H18L7.1,66.3v30.9h-7V51h7l13.5,28.8L33.9,51h7v46.3H33.9z"/>
<path d="M52.2,97.3V51h7v46.3H52.2z"/>
<path d="M85.5,97.7c-4.6,0.1-8.9-1.7-12.2-4.9c-4.6-4.6-4.5-9.7-4.5-18.6s-0.1-14,4.5-18.6c3.2-3.2,7.6-5,12.2-4.9
	c8.5,0,14.9,5,16.5,14.2h-7.2c-1.1-4.7-4.2-7.9-9.4-7.9c-2.6-0.1-5,1-6.8,2.8c-2.3,2.5-2.8,5.1-2.8,14.4s0.5,12,2.8,14.4
	c1.8,1.8,4.3,2.9,6.8,2.8c5.1,0,8.3-3.2,9.4-7.9h7.1C100.5,92.7,93.9,97.7,85.5,97.7z"/>
<path d="M136.5,97.3V77.1h-18.8v20.2h-7V51h7v19.8h18.8V51h7v46.3H136.5z"/>
<path d="M154.8,97.3V51h7v40h22.3v6.3L154.8,97.3z"/>
</svg>
