<svg id="Layer_1" data-name="Layer 1" xmlns="http://www.w3.org/2000/svg" viewBox="0 0 16 12.68"><defs><style>.cls-1{fill:#c29fd8;}</style></defs><path class="cls-1" d="M5.08,14.34c.48,0,.65,0,.65-.51L5.65,6.38c0-2.29,1.82-4.64,1.83-2.58l.08,10c0,.47.18.53.65.53s.66-.06.66-.53l0-7.07c0-2.38,1.85-4.93,1.88-2.86l.13,8.4c0,1.14.46,2,1.54,2h2.48c.83,0,1.07-.11,1.07-1.41H13.21c-.52,0-1-.16-1-.63l-.13-9.36c0-1.43-1.21-1.48-2.07-.95S8.9,3.66,8.9,3.48c0-1.16-.4-1.81-1.24-1.81a2.25,2.25,0,0,0-1.31.5c-.65.56-.7,1-.7.83a1,1,0,0,0-.49-1,2.32,2.32,0,0,0-1.1-.21c-1.8.1-3,.29-3.81,0C0,1.7-.32,3.27.94,3.27c.54,0,2.37-.59,3-.43.16.05.43.21.43.47,0,.57.1,6.65.1,10.52,0,.46.17.51.65.51" transform="translate(0 -1.66)"/></svg>